<?xml version="1.0" encoding="UTF-8"?>
<svg width="227px" height="245px" viewBox="0 0 227 245" version="1.1" xmlns="http://www.w3.org/2000/svg" xmlns:xlink="http://www.w3.org/1999/xlink">
    <!-- Generator: Sketch 54.1 (76490) - https://sketchapp.com -->
    <title>Group</title>
    <desc>Created with Sketch.</desc>
    <g id="Page-1" stroke="none" stroke-width="1" fill="none" fill-rule="evenodd">
        <g id="Fundraising" transform="translate(-124.000000, -171.000000)">
            <g id="decoration" transform="translate(98.000000, 139.000000)">
                <g id="Group">
                    <path d="M108.783358,74.3530554 C186.257343,91.4570709 173.583007,63.8638712 214.593006,59.3139698 C255.603005,54.7640685 255.105046,101.078528 259.451158,106.774228 C280.292601,134.087516 287.165292,169.462649 259.917821,195.613014 C237.501297,217.126948 185.995341,210.530065 156.276969,238.792278 C119.782266,273.498791 54.820783,249.854745 55.2966221,209.235124 C55.7724611,168.615502 36.1680123,164.677472 32.7657704,133.079612 C29.8784351,106.263877 31.3093717,57.24904 108.783358,74.3530554 Z" id="blob" fill="#8CDECB" transform="translate(154.910876, 157.291877) rotate(-409.000000) translate(-154.910876, -157.291877) "></path>
                    <g id="small-dots" transform="translate(197.778627, 238.022058) rotate(12.000000) translate(-197.778627, -238.022058) translate(148.778627, 205.522058)" fill="#08242A">
                        <path d="M58.3973012,55.2650204 C59.3973012,55.2650204 62.3973012,55.2650204 62.3973012,51.2650204 C62.3973012,50.2100802 61.9811918,49.9797233 61.3973012,49.2650204 C60.7584727,48.4830715 59.3973012,47.753872 58.3973012,48.2650204 C56.6679893,49.1489554 55.3973012,49.0558814 55.3973012,51.2650204 C55.3973012,53.4741594 57.3973012,55.2650204 58.3973012,55.2650204 Z" id="Oval" transform="translate(58.897301, 51.679867) rotate(35.000000) translate(-58.897301, -51.679867) "></path>
                        <path d="M92.3973012,59.2650204 C93.3973012,59.2650204 96.3973012,59.2650204 96.3973012,55.2650204 C96.3973012,54.2100802 95.9811918,53.9797233 95.3973012,53.2650204 C94.7584727,52.4830715 93.3973012,51.753872 92.3973012,52.2650204 C90.6679893,53.1489554 89.3973012,53.0558814 89.3973012,55.2650204 C89.3973012,57.4741594 91.3973012,59.2650204 92.3973012,59.2650204 Z" id="Oval" transform="translate(92.897301, 55.679867) rotate(-78.000000) translate(-92.897301, -55.679867) "></path>
                        <path d="M76.3352009,64.1939207 C77.3352009,64.1939207 78.3352009,64.023613 78.3352009,61.1939207 C78.3352009,60.1389806 77.9190914,59.9086237 77.3352009,59.1939207 C76.6963724,58.4119718 75.1415867,57.3875349 74.3352009,58.1939207 C73.3352009,59.1939207 72.3352009,58.9847817 72.3352009,61.1939207 C72.3352009,63.4030597 75.3352009,64.1939207 76.3352009,64.1939207 Z" id="Oval" transform="translate(75.335201, 61.046847) rotate(-78.000000) translate(-75.335201, -61.046847) "></path>
                        <path d="M80.1957748,52.4659646 C82.338632,52.4659646 83.0529177,51.4659646 83.0529177,49.5565453 C83.0529177,48.844693 82.7556967,48.6892528 82.338632,48.2069857 C81.8823259,47.6793424 80.1957748,47.0723731 79.4814891,47.4172857 C78.2462663,48.0137472 78.0529177,48.9966857 78.0529177,49.5565453 C78.0529177,50.1164049 78.0529177,52.4659646 80.1957748,52.4659646 Z" id="Oval" transform="translate(80.552918, 49.891125) rotate(-78.000000) translate(-80.552918, -49.891125) "></path>
                        <path d="M29.1855748,34.4950925 C30.1855748,34.4950925 33.1855748,34.4950925 33.1855748,30.4950925 C33.1855748,29.4401523 32.7694654,29.2097954 32.1855748,28.4950925 C31.5467463,27.7131436 30.1855748,26.9839441 29.1855748,27.4950925 C27.4562629,28.3790274 26.1855748,28.2859535 26.1855748,30.4950925 C26.1855748,32.7042315 28.1855748,34.4950925 29.1855748,34.4950925 Z" id="Oval" transform="translate(29.685575, 30.909939) rotate(-19.000000) translate(-29.685575, -30.909939) "></path>
                        <path d="M52.4063414,9.33965567 C53.4063414,9.33965567 56.4063414,9.33965567 56.4063414,5.33965567 C56.4063414,4.28471551 55.9902319,4.05435862 55.4063414,3.33965567 C54.7675129,2.55770677 53.4063414,1.82850729 52.4063414,2.33965567 C50.6770295,3.22359065 49.4063414,3.13051667 49.4063414,5.33965567 C49.4063414,7.54879467 51.4063414,9.33965567 52.4063414,9.33965567 Z" id="Oval" transform="translate(52.906341, 5.754502) rotate(-132.000000) translate(-52.906341, -5.754502) "></path>
                        <path d="M47.9255759,26.2642453 C48.9255759,26.2642453 49.9255759,26.0939376 49.9255759,23.2642453 C49.9255759,22.2093051 49.5094665,21.9789482 48.9255759,21.2642453 C48.2867474,20.4822964 46.7319618,19.4578594 45.9255759,20.2642453 C44.9255759,21.2642453 43.9255759,21.0551063 43.9255759,23.2642453 C43.9255759,25.4733843 46.9255759,26.2642453 47.9255759,26.2642453 Z" id="Oval" transform="translate(46.925576, 23.117171) rotate(-132.000000) translate(-46.925576, -23.117171) "></path>
                        <path d="M40.6101614,14.9136206 C42.7530185,14.9136206 43.4673043,13.9136206 43.4673043,12.0042014 C43.4673043,11.2923491 43.1700832,11.1369089 42.7530185,10.6546418 C42.2967125,10.1269985 40.6101614,9.52002917 39.8958757,9.86494177 C38.6606529,10.4614033 38.4673043,11.4443418 38.4673043,12.0042014 C38.4673043,12.564061 38.4673043,14.9136206 40.6101614,14.9136206 Z" id="Oval" transform="translate(40.967304, 12.338781) rotate(-132.000000) translate(-40.967304, -12.338781) "></path>
                        <path d="M81.7772658,24.6895977 C82.7772658,24.6895977 85.7772658,24.6895977 85.7772658,20.6895977 C85.7772658,19.6346576 85.3611563,19.4043007 84.7772658,18.6895977 C84.1384373,17.9076488 82.7772658,17.1784494 81.7772658,17.6895977 C80.0479539,18.5735327 78.7772658,18.4804587 78.7772658,20.6895977 C78.7772658,22.8987367 80.7772658,24.6895977 81.7772658,24.6895977 Z" id="Oval" transform="translate(82.277266, 21.104444) rotate(-179.000000) translate(-82.277266, -21.104444) "></path>
                        <path d="M51.3532167,40.3860062 C52.3532167,40.3860062 55.3532167,40.3860062 55.3532167,36.3860062 C55.3532167,35.331066 54.9371072,35.1007091 54.3532167,34.3860062 C53.7143882,33.6040573 52.3532167,32.8748578 51.3532167,33.3860062 C49.6239048,34.2699411 48.3532167,34.1768672 48.3532167,36.3860062 C48.3532167,38.5951452 50.3532167,40.3860062 51.3532167,40.3860062 Z" id="Oval" transform="translate(51.853217, 36.800852) rotate(-292.000000) translate(-51.853217, -36.800852) "></path>
                        <path d="M64.4116805,25.6778963 C65.4116805,25.6778963 66.4116805,25.5075885 66.4116805,22.6778963 C66.4116805,21.6229561 65.9955711,21.3925992 65.4116805,20.6778963 C64.772852,19.8959474 63.2180664,18.8715104 62.4116805,19.6778963 C61.4116805,20.6778963 60.4116805,20.4687573 60.4116805,22.6778963 C60.4116805,24.8870353 63.4116805,25.6778963 64.4116805,25.6778963 Z" id="Oval" transform="translate(63.411681, 22.530822) rotate(-292.000000) translate(-63.411681, -22.530822) "></path>
                        <path d="M65.2994635,37.2026083 C67.4423206,37.2026083 68.1566063,36.2026083 68.1566063,34.2931891 C68.1566063,33.5813367 67.8593853,33.4258965 67.4423206,32.9436294 C66.9860146,32.4159861 65.2994635,31.8090168 64.5851778,32.1539294 C63.349955,32.7503909 63.1566063,33.7333295 63.1566063,34.2931891 C63.1566063,34.8530486 63.1566063,37.2026083 65.2994635,37.2026083 Z" id="Oval" transform="translate(65.656606, 34.627768) rotate(-292.000000) translate(-65.656606, -34.627768) "></path>
                        <path d="M18.3434649,19.8610829 C20.4863221,19.8610829 21.2006078,18.8610829 21.2006078,16.9516637 C21.2006078,16.2398114 20.9033868,16.0843712 20.4863221,15.6021041 C20.030016,15.0744608 18.3434649,14.4674915 17.6291792,14.8124041 C16.3939564,15.4088655 16.2006078,16.3918041 16.2006078,16.9516637 C16.2006078,17.5115233 16.2006078,19.8610829 18.3434649,19.8610829 Z" id="Oval" transform="translate(18.700608, 17.286243) rotate(-169.000000) translate(-18.700608, -17.286243) "></path>
                        <path d="M3.64589836,14.6064919 C5.78875551,14.6064919 6.50304122,13.6064919 6.50304122,11.6970727 C6.50304122,10.9852204 6.20582019,10.8297802 5.78875551,10.3475131 C5.33244946,9.81986973 3.64589836,9.21290043 2.93161265,9.55781304 C1.69638987,10.1542745 1.50304122,11.1372131 1.50304122,11.6970727 C1.50304122,12.2569323 1.50304122,14.6064919 3.64589836,14.6064919 Z" id="Oval" transform="translate(4.003041, 12.031652) rotate(-234.000000) translate(-4.003041, -12.031652) "></path>
                    </g>
                </g>
            </g>
        </g>
    </g>
</svg>